# xmcd CD database file
#
# Track frame offsets:
#	150
#	15959
#	38535
#	52926
#	72698
#	78439
#	99034
#	115741
#	137546
#	156707
#	170989
#	183436
#	207153
#
# Disc length: 2969 seconds
#
# Revision: 0
# Processed by: cddbd v1.5.2PL0 Copyright (c) Steve Scherf et al.
# Submitted via: CDex 1.70beta2
#
DISCID=a70b970d
DTITLE=Manfred Krug - Schlafstoerung
DYEAR=2000
DGENRE=Jazz
TTITLE0=Das Lied mit einem Ton
TTITLE1=Schau her zu mir
TTITLE2=Ich brauche keine Millionen
TTITLE3=Es haengt ein Pferdehalfter an der wand
TTITLE4=Frosches Lied
TTITLE5=Copacabana
TTITLE6=Nah bei Dir
TTITLE7=Ich hab sie heute noch lieb
TTITLE8=Mit dem Wind muss ich weiterzieh'n
TTITLE9=Schon nach einer Sekunde
TTITLE10=Wunderbar ist die Welt
TTITLE11=Wenn's regnet
TTITLE12=Maskenspiel
EXTD=YEAR: 2000
EXTT0=
EXTT1=
EXTT2=
EXTT3=
EXTT4=
EXTT5=
EXTT6=
EXTT7=
EXTT8=
EXTT9=
EXTT10=
EXTT11=
EXTT12=
PLAYORDER=
